<!DOCTYPE svg PUBLIC "-//W3C//DTD SVG 1.1//EN" "http://www.w3.org/Graphics/SVG/1.1/DTD/svg11.dtd">
<!-- Uploaded to: SVG Repo, www.svgrepo.com, Transformed by: SVG Repo Mixer Tools -->
<svg fill="#ffffff" height="800px" width="800px" version="1.1" id="Layer_1" xmlns="http://www.w3.org/2000/svg" xmlns:xlink="http://www.w3.org/1999/xlink" viewBox="0 0 512.005 512.005" xml:space="preserve" stroke="#ffffff">
<g id="SVGRepo_bgCarrier" stroke-width="0"/>
<g id="SVGRepo_tracerCarrier" stroke-linecap="round" stroke-linejoin="round"/>
<g id="SVGRepo_iconCarrier"> <g transform="translate(-1)"> <g> <g> <path d="M513,292.064c0-59.324-43.511-108.552-100.275-117.777l-14.857-69.956h13.013c1.203,17.289,7.031,33.997,29.781,40.201 c4.361,1.195,8.866,1.783,13.466,1.783c7.262,0,14.72-1.485,22.076-4.42l31.428-12.578c4.378-1.749,6.511-6.707,4.762-11.093 c-1.749-4.369-6.75-6.502-11.093-4.745l-31.428,12.561c-8.405,3.371-17.169,4.087-24.713,2.031 c-11.068-3.021-15.889-9.404-17.126-23.74h8.166c9.412,0,17.067-7.654,17.067-17.067V70.197c0-9.412-7.654-17.067-17.067-17.067 H325.267c-9.412,0-17.067,7.654-17.067,17.067v17.067c0,9.412,7.654,17.067,17.067,17.067h10.283l17.434,75.366 c-29.705,10.675-54.289,32.888-67.9,62.677l-141.184-9.122l-29.611-120.388h13.21c14.942,0,27.102-12.16,27.102-27.895 c0-12.698-8.636-23.561-21-26.411L59.368,41.432c-7.996-1.835-16.247,0.026-22.673,5.137C30.278,51.672,26.6,59.3,26.6,67.501 v18.611c0,14.754,11.998,26.752,26.752,26.752h0.657l4.122,17.067H9.533c-4.71,0-8.533,3.823-8.533,8.533 c0,4.71,3.823,8.533,8.533,8.533h8.533v8.533c0,4.71,3.823,8.533,8.533,8.533s8.533-3.823,8.533-8.533v-8.533h27.119 l24.209,100.301c-15.659,12.518-25.728,31.744-25.728,53.299c0,16.495,5.879,31.633,15.659,43.452l-37.999,76.015h-3.371 c-14.054,0-25.489,11.435-25.489,25.711c0,14.054,11.435,25.489,25.489,25.489h435.422c14.054,0,25.489-11.435,25.489-25.711 c0-14.054-11.435-25.489-25.489-25.489h-5.521l-5.982-28.143C491.453,370.545,513,333.801,513,292.064z M129,266.464 c18.825,0,34.133,15.309,34.133,34.133S147.825,334.731,129,334.731s-34.133-15.309-34.133-34.133S110.175,266.464,129,266.464z M100.388,420.064l26.675-51.302c0.649,0.026,1.28,0.102,1.937,0.102c5.035,0,10.206-0.606,14.541-1.656l144.87-18.782 c20.693,38.511,61.261,63.104,105.122,63.104c2.944,0,5.837-0.23,8.73-0.444l1.903,8.977H100.388z M444.657,380.657 c-2.517,1.451-5.086,2.782-7.697,4.011c-0.358,0.162-0.708,0.35-1.058,0.512c-2.722,1.237-5.487,2.347-8.303,3.337 c-0.256,0.085-0.503,0.188-0.751,0.273c-2.995,1.033-6.042,1.929-9.131,2.671c-0.06,0.008-0.111,0.026-0.162,0.043 c-3.2,0.768-6.443,1.382-9.728,1.843h-0.017c-4.685,0.657-9.421,1.118-14.276,1.118c-35.388,0-68.309-18.662-86.852-48.401 l87.432-11.332c23.262-0.316,42.086-19.337,42.086-42.667c0-2.935-0.299-5.794-0.862-8.567 c-3.968-19.422-21.129-34.082-41.225-34.082h-0.034l-90.633-5.862c13.133-24.508,35.311-42.257,61.44-49.818 c0.179-0.043,0.358-0.026,0.529-0.077c9.267-2.645,18.722-3.994,28.117-3.994c3.55,0,7.194,0.205,11.119,0.631 c51.251,5.564,91.281,49.067,91.281,101.769C495.933,329.901,475.257,362.925,444.657,380.657z"/> <path d="M128.999,317.664c9.412,0,17.067-7.654,17.067-17.067c0-9.412-7.654-17.067-17.067-17.067s-17.067,7.654-17.067,17.067 C111.933,310.01,119.587,317.664,128.999,317.664z"/> </g> </g> </g> </g>
</svg>