<!DOCTYPE svg PUBLIC "-//W3C//DTD SVG 1.1//EN" "http://www.w3.org/Graphics/SVG/1.1/DTD/svg11.dtd">
<!-- Uploaded to: SVG Repo, www.svgrepo.com, Transformed by: SVG Repo Mixer Tools -->
<svg fill="#ffffff" height="800px" width="800px" version="1.1" id="Layer_1" xmlns="http://www.w3.org/2000/svg" xmlns:xlink="http://www.w3.org/1999/xlink" viewBox="0 0 503.607 503.607" xml:space="preserve">
<g id="SVGRepo_bgCarrier" stroke-width="0"/>
<g id="SVGRepo_tracerCarrier" stroke-linecap="round" stroke-linejoin="round"/>
<g id="SVGRepo_iconCarrier"> <g> <g> <g> <path d="M474.229,54.557c-5.137,0-9.887,1.444-14.093,3.76c-3.777-11.868-14.772-20.547-27.875-20.547 c-16.199,0-29.377,13.178-29.377,29.377v12.59H100.721v-12.59c0-16.199-13.178-29.377-29.377-29.377 c-13.102,0-24.098,8.679-27.875,20.547c-4.205-2.317-8.956-3.76-14.093-3.76C13.178,54.557,0,67.735,0,83.934v41.967 c0,16.199,13.178,29.377,29.377,29.377c5.137,0,9.887-1.444,14.093-3.76c3.777,11.868,14.772,20.547,27.875,20.547 c16.199,0,29.377-13.178,29.377-29.377v-12.59h16.787v25.18c0,4.633,3.752,8.393,8.393,8.393h8.393v293.771 c0,4.633,3.752,8.393,8.393,8.393c4.642,0,8.393-3.76,8.393-8.393V163.672h8.393c4.642,0,8.393-3.76,8.393-8.393v-25.18h167.869 v25.18c0,4.633,3.752,8.393,8.393,8.393h8.393v293.771c0,4.633,3.752,8.393,8.393,8.393s8.393-3.76,8.393-8.393V163.672h8.393 c4.642,0,8.393-3.76,8.393-8.393v-25.18h16.787v12.59c0,16.199,13.178,29.377,29.377,29.377c13.102,0,24.098-8.679,27.875-20.547 c4.205,2.317,8.956,3.76,14.093,3.76c16.199,0,29.377-13.178,29.377-29.377V83.934C503.607,67.735,490.429,54.557,474.229,54.557 z M402.885,113.311h-25.18h-33.574H159.475h-33.574h-25.18V96.525h302.164V113.311z"/> <path d="M310.557,289.574H193.049c-13.883,0-25.18,11.298-25.18,25.18c0,10.928,7.042,20.161,16.787,23.636v119.053 c0,4.633,3.752,8.393,8.393,8.393c4.642,0,8.393-3.76,8.393-8.393V339.934h100.721v117.508c0,4.633,3.752,8.393,8.393,8.393 c4.642,0,8.393-3.76,8.393-8.393V338.39c9.745-3.475,16.787-12.708,16.787-23.636 C335.738,300.871,324.44,289.574,310.557,289.574z"/> </g> </g> </g> </g>
</svg>